# xmcd
#
# Track frame offsets: 
#        150
#        14248
#        34519
#        51379
#        71098
#        77928
#        99609
#        112134
#        139702
#        158332
#        178341
#        195637
#        216839
#
# Disc length: 3200 seconds
#
# Revision: 0
# Processed by: cddbd v1.5.2PL0 Copyright (c) Steve Scherf et al.
# Submitted via: ExactAudioCopy v0.95b4
#
DISCID=c00c7e0d
DTITLE=Rumbelly - Welcome To The End
DYEAR=2004
DGENRE=Blues
TTITLE0=Trial and Tribulation
TTITLE1=10000 Nights Without You
TTITLE2=Premonition
TTITLE3=Long Lost Brother
TTITLE4=Shalimar
TTITLE5=Colorado Night
TTITLE6=Goin' Back To Dallas
TTITLE7=Gimme A Break
TTITLE8=Think I'm Goin' Insane
TTITLE9=Got It Bad This Time
TTITLE10=Last Call
TTITLE11=Destination: Unknown
TTITLE12=Welcome To The End
EXTD=
EXTT0=
EXTT1=
EXTT2=
EXTT3=
EXTT4=
EXTT5=
EXTT6=
EXTT7=
EXTT8=
EXTT9=
EXTT10=
EXTT11=
EXTT12=
PLAYORDER=
